PathFileType	4	(X/Y/Z)	C:/Users/opensim2020/Desktop/walking_exp_matlab/subject03_walking13_straight_01.trc																																																																																																																																								
DataRate	CameraRate	NumFrames	NumMarkers	Units	OrigDataRate	OrigDataStartFrame	OrigNumFrames																																																																																																																																				
100	100	9	46	mm	100	684	185																																																																																																																																				
Frame#	Time	LFHD			RFHD			LBHD			RBHD			C7			T10			CLAV			STRN			RBAK			LSHO			LUPA			LELB			LFRM			LWRA			LWRB			LFIN			RSHO			RUPA			RELB			RFRM			RWRA			RWRB			RFIN			LASI			RASI			LPSI			RPSI			LTHI			LKNE			LTIB			LANK			LHEE			LTOE			RTHI			RKNE			RTIB			RANK			RHEE			RTOE			*39			*40			*41			*42			*43			*44			*45		
		X1	Y1	Z1	X2	Y2	Z2	X3	Y3	Z3	X4	Y4	Z4	X5	Y5	Z5	X6	Y6	Z6	X7	Y7	Z7	X8	Y8	Z8	X9	Y9	Z9	X10	Y10	Z10	X11	Y11	Z11	X12	Y12	Z12	X13	Y13	Z13	X14	Y14	Z14	X15	Y15	Z15	X16	Y16	Z16	X17	Y17	Z17	X18	Y18	Z18	X19	Y19	Z19	X20	Y20	Z20	X21	Y21	Z21	X22	Y22	Z22	X23	Y23	Z23	X24	Y24	Z24	X25	Y25	Z25	X26	Y26	Z26	X27	Y27	Z27	X28	Y28	Z28	X29	Y29	Z29	X30	Y30	Z30	X31	Y31	Z31	X32	Y32	Z32	X33	Y33	Z33	X34	Y34	Z34	X35	Y35	Z35	X36	Y36	Z36	X37	Y37	Z37	X38	Y38	Z38	X39	Y39	Z39	X40	Y40	Z40	X41	Y41	Z41	X42	Y42	Z42	X43	Y43	Z43	X44	Y44	Z44	X45	Y45	Z45	X46	Y46	Z46
																																																																																																																																											
139	1.38	476.86899	1615.9856	-1044.77673	449.88599	1614.62463	-914.53601	356.13916	1560.32947	-1067.36511	334.37463	1558.62451	-938.71869	330.7348	1397.5719	-1012.11328	306.62711	1085.8999	-1004.31744	455.67877	1327.6759	-997.03949	507.02722	1163.65295	-1003.80029	274.73813	1218.84741	-928.51947	418.19745	1365.87927	-1155.03516	460.06113	1182.17627	-1231.59631	511.7739	1070.31165	-1242.1748	596.34601	973.64081	-1224.71375	666.95502	885.78979	-1177.49756	654.61395	875.53827	-1230.42358	712.50171	817.92334	-1210.13867	380.82623	1352.90784	-846.26709	355.86865	1131.79932	-775.2099	364.13803	1017.44427	-764.2583	366.60233	880.17163	-765.15387	388.67157	783.05334	-800.98639	353.87793	779.89716	-758.91998	370.1705	707.16229	-770.21729	458.96292	925.00232	-1129.25232	477.17044	922.36438	-892.78223	302.71188	950.44598	-1064.396	314.19159	949.5918	-916.44531	351.75906	632.72107	-1159.80994	313.04898	459.13058	-1119.72351	208.58833	288.19901	-1117.85999	132.19444	90.67641	-1073.354	84.89993	67.04768	-1036.4873	274.06516	27.9574	-1049.05627	487.26321	629.88232	-842.39575	566.58698	471.78421	-885.9118	588.83148	285.806	-880.27655	643.14301	74.911	-924.07996	610.91467	33.0226	-977.7132	787.14178	73.66289	-943.58521	378.92282	1668.24609	-1010.55603	NaN	NaN	NaN	NaN	NaN	NaN	NaN	NaN	NaN	NaN	NaN	NaN	NaN	NaN	NaN	NaN	NaN	NaN
140	1.39	490.93222	1614.26477	-1043.82019	463.74072	1612.60083	-913.61591	370.29257	1558.64294	-1066.77856	348.32379	1556.50842	-938.13177	344.99701	1395.50879	-1011.02484	321.16525	1083.84424	-1002.64612	470.18466	1325.65112	-996.52844	521.51416	1161.68323	-1003.85565	289.49695	1216.62756	-927.50842	431.90997	1364.07446	-1154.23254	474.92105	1181.25635	-1231.17664	528.30255	1070.37854	-1241.89001	615.93982	977.06427	-1223.67944	690.03473	893.02753	-1175.24084	677.86798	881.16821	-1227.79456	738.29688	826.47101	-1206.71765	395.87918	1350.53992	-845.30865	368.77002	1129.45825	-774.93787	374.77499	1014.87067	-764.27539	374.87445	877.59259	-764.92542	394.51031	779.8089	-800.79742	359.79364	777.6001	-758.68158	373.41757	704.16949	-770.27228	472.88666	923.19098	-1129.2229	493.21362	920.2381	-892.94873	317.05399	948.22791	-1062.25146	330.1077	947.37756	-914.38318	363.43716	631.84625	-1159.68701	322.70316	458.68173	-1120.02917	214.64914	289.56366	-1118.25879	133.99605	93.63076	-1073.75159	86.02077	71.24185	-1036.97363	274.21075	27.84919	-1049.01758	499.68121	626.41919	-840.35358	581.84418	469.87122	-886.4812	610.23615	285.89172	-880.73749	671.57629	76.55865	-924.54016	640.7038	33.82381	-978.41626	815.96216	79.78572	-943.70355	NaN	NaN	NaN	NaN	NaN	NaN	NaN	NaN	NaN	NaN	NaN	NaN	NaN	NaN	NaN	NaN	NaN	NaN	NaN	NaN	NaN
141	1.4	505.00961	1612.64612	-1042.93335	477.70331	1610.71704	-912.75574	384.41086	1557.02942	-1066.17737	362.26025	1554.73474	-937.5351	359.36551	1393.55151	-1009.81964	336.07474	1082.02551	-1001.09998	484.74664	1323.75842	-995.87598	536.1825	1159.82654	-1003.77423	304.30255	1214.5199	-926.45398	445.70737	1362.36682	-1153.33008	489.8746	1180.32507	-1230.75903	544.36511	1070.36877	-1241.5343	634.92426	980.52313	-1222.58398	712.22314	900.32825	-1173.02466	700.39233	887.00427	-1225.24097	763.15143	835.16852	-1203.30286	411.07391	1348.27185	-844.27228	382.02927	1127.27551	-774.60461	386.20676	1012.59448	-764.05127	383.45865	875.35791	-764.6283	401.1171	776.91766	-800.34924	366.24371	775.57349	-758.25116	376.85187	701.45203	-770.75952	487.19113	921.41467	-1129.21863	509.23795	918.12433	-892.97986	331.74518	946.20435	-1060.24646	345.93295	945.37634	-912.34296	375.63907	630.96503	-1159.67554	333.15579	457.84021	-1120.66235	221.39297	290.97302	-1118.87524	136.09579	96.97816	-1074.38647	87.57889	75.87755	-1037.84045	274.44388	27.7743	-1048.93604	513.52734	623.7478	-838.89233	597.7663	468.47897	-886.7431	630.4137	285.87936	-881.20636	696.06567	77.47416	-925.75568	666.54126	34.26052	-979.62177	840.84998	83.60455	-944.40222	407.07611	1664.58154	-1008.81744	NaN	NaN	NaN	NaN	NaN	NaN	NaN	NaN	NaN	NaN	NaN	NaN	NaN	NaN	NaN	NaN	NaN	NaN
142	1.41	519.03717	1611.10315	-1042.02161	491.556	1608.98474	-911.86426	398.51208	1555.43018	-1065.5116	376.14252	1552.87134	-936.93372	373.86469	1391.65881	-1008.55652	351.16736	1080.02429	-999.84198	499.35571	1321.99402	-995.1062	551.00787	1158.16052	-1003.4552	319.26007	1212.48657	-925.18604	459.52286	1360.71704	-1152.32043	504.54761	1179.51636	-1230.2395	559.96466	1070.2345	-1241.10229	653.21033	983.98425	-1221.46631	733.40948	907.60553	-1170.8313	722.03821	892.9552	-1222.77527	786.83496	843.91968	-1200.13647	426.42944	1346.19617	-843.15881	395.53745	1125.22546	-774.21033	398.08261	1010.54034	-763.85248	392.66281	873.34052	-764.2511	407.95493	774.13416	-799.62433	373.27469	773.9201	-757.7536	380.92578	699.1344	-770.8952	501.71515	919.68494	-1129.01074	525.22278	916.19135	-892.80658	346.79791	944.323	-1058.32593	361.9342	943.72858	-910.65985	388.37833	630.03467	-1159.75256	344.56479	456.89307	-1121.81165	228.94145	292.30405	-1119.61829	138.39891	100.69961	-1075.22168	89.58558	80.99002	-1038.62451	274.50092	27.5466	-1049.05469	529.17169	622.01727	-838.60205	614.40375	467.70642	-886.7923	649.07013	285.42056	-881.88312	716.2431	77.64949	-926.84271	686.81018	34.21061	-980.92694	861.17059	85.04189	-945.82697	421.40707	1663.36218	-1008.08667	NaN	NaN	NaN	NaN	NaN	NaN	NaN	NaN	NaN	NaN	NaN	NaN	NaN	NaN	NaN	NaN	NaN	NaN
143	1.42	533.05829	1609.61267	-1041.12903	505.40256	1607.39478	-911.03064	412.61017	1553.82397	-1064.81555	390.10696	1551.2417	-936.28082	388.33704	1389.81067	-1007.16467	366.55737	1078.12842	-998.83191	514.05328	1320.39172	-994.27081	566.05066	1156.64197	-1002.86707	334.2883	1210.52869	-923.90411	473.38577	1359.22119	-1151.18652	518.90753	1178.48962	-1229.40491	575.05103	1070.09888	-1240.65735	670.79456	987.41425	-1220.35669	753.69733	914.85461	-1168.7207	742.80566	898.89099	-1220.354	809.55438	852.68878	-1197.0415	441.7767	1344.38318	-841.96863	409.49054	1123.43152	-773.70581	410.36423	1008.7038	-763.64191	402.30573	871.62408	-763.64551	415.77557	771.91357	-798.73865	380.87088	772.54871	-757.08313	385.89807	697.4436	-770.84485	516.77203	917.99524	-1128.68665	541.29492	914.61761	-892.26813	362.37741	942.37622	-1056.81824	377.84937	942.2359	-909.35083	401.84213	629.01678	-1159.85022	356.74692	455.52087	-1123.00879	237.26439	293.60928	-1120.63892	141.35338	104.68513	-1076.28833	91.8782	86.71898	-1039.96619	274.7348	27.42299	-1049.09167	547.00568	621.46637	-838.90302	631.93652	467.80981	-886.90967	666.1391	284.50626	-882.79474	732.38159	76.61353	-928.18677	703.02509	33.01114	-981.97406	877.11511	83.76705	-947.73431	435.18964	1661.50208	-1007.10498	NaN	NaN	NaN	NaN	NaN	NaN	NaN	NaN	NaN	NaN	NaN	NaN	NaN	NaN	NaN	NaN	NaN	NaN
144	1.43	547.03394	1608.24121	-1040.24646	519.32025	1605.97815	-910.15045	426.68057	1552.29456	-1064.00867	404.01074	1549.69568	-935.52203	402.849	1388.05652	-1005.80109	382.11459	1076.25623	-998.09155	528.80945	1318.9801	-993.27063	581.22113	1155.37329	-1002.05707	349.29877	1208.65332	-922.42236	487.29639	1357.8313	-1149.9978	533.30664	1177.62622	-1228.7511	589.65356	1069.78455	-1240.16406	687.63354	990.71375	-1219.33691	773.00867	921.927	-1166.63281	762.70215	904.78845	-1217.99902	831.16315	861.36707	-1194.06519	457.10684	1342.72876	-840.71948	423.60107	1121.7915	-773.11725	423.09103	1007.13483	-763.41235	412.59149	870.21478	-763.08948	424.59521	770.08691	-797.75098	389.25449	771.48749	-756.31671	391.74063	696.12207	-770.48273	532.22223	916.28003	-1128.1947	557.52368	913.49756	-891.32172	378.33951	940.6286	-1055.63794	393.70923	940.9295	-908.37292	416.15872	627.82288	-1159.90515	370.20517	454.14365	-1124.49402	246.5621	294.8671	-1121.76428	144.92752	109.30971	-1077.7218	95.13946	93.11909	-1041.08203	275.06708	27.37568	-1049.23206	566.10132	621.85059	-839.74011	650.56561	468.80655	-887.47327	682.03778	283.14886	-883.77344	744.77264	74.41609	-929.90887	714.58972	31.17067	-983.67084	889.2674	79.88546	-949.48096	448.99628	1659.67883	-1006.32501	NaN	NaN	NaN	NaN	NaN	NaN	NaN	NaN	NaN	NaN	NaN	NaN	NaN	NaN	NaN	NaN	NaN	NaN
145	1.44	560.92444	1606.91003	-1039.30029	533.12939	1604.74121	-909.31799	440.73773	1550.85913	-1063.17102	417.99445	1548.29187	-934.66937	417.36166	1386.35364	-1004.39636	397.767	1074.47498	-997.41388	543.58844	1317.65918	-992.18304	596.48431	1154.2594	-1000.99792	364.59293	1206.94727	-920.99481	501.18985	1356.54504	-1148.75781	547.28882	1176.69104	-1227.95862	603.79126	1069.45862	-1239.67834	703.79559	993.90143	-1218.23438	791.38501	928.7843	-1164.65259	781.69263	910.60321	-1215.74609	851.72363	869.8269	-1191.21887	472.41125	1341.33838	-839.44232	437.89813	1120.40857	-772.42981	436.1604	1005.76788	-763.04999	423.45462	869.04596	-762.43793	433.95996	768.49878	-796.66766	398.30533	770.72321	-755.51288	398.26855	694.97076	-770.08765	548.28589	914.62061	-1127.45056	574.02496	912.84576	-890.12311	394.68881	938.84406	-1054.88367	409.71149	939.53815	-907.74951	431.36237	626.50739	-1160.09509	384.85315	452.50803	-1126.28101	256.79791	296.32416	-1123.22058	149.20728	114.38679	-1078.96729	98.95332	100.40494	-1042.31409	275.42542	27.26546	-1049.43701	586.00665	622.6123	-840.46796	669.89691	469.89801	-888.42401	696.92548	281.25348	-884.91278	753.99799	71.31477	-932.06042	722.47595	29.30475	-985.8811	898.13745	74.1004	-950.97015	NaN	NaN	NaN	NaN	NaN	NaN	NaN	NaN	NaN	NaN	NaN	NaN	NaN	NaN	NaN	NaN	NaN	NaN	NaN	NaN	NaN
146	1.45	574.83832	1605.68115	-1038.41956	546.98846	1603.53357	-908.38202	454.73849	1549.39966	-1062.29895	431.90646	1546.87695	-933.83636	431.84836	1384.66748	-1002.97388	413.66318	1072.54614	-996.71887	558.38922	1316.45288	-990.95221	612.03912	1153.31152	-999.81635	380.00482	1205.31079	-919.53839	515.10388	1355.24866	-1147.38721	560.9729	1175.57117	-1227.10327	617.46216	1068.95227	-1239.1886	719.28668	996.78046	-1217.18506	808.82727	935.20673	-1162.77124	799.81683	916.08063	-1213.58142	871.26715	877.94702	-1188.58203	487.67313	1340.08069	-838.0968	452.32053	1119.16565	-771.65527	449.4563	1004.58105	-762.55444	434.89426	868.08661	-761.64484	444.05908	767.1181	-795.54962	408.17032	770.11676	-754.54468	405.75522	694.31238	-769.60437	564.9209	912.979	-1126.51074	590.8053	912.54919	-888.82813	411.25217	937.2149	-1054.25732	425.7496	938.14899	-907.37115	447.48828	624.99817	-1160.54382	400.75073	450.64798	-1128.75293	267.8483	297.83893	-1125.06323	154.24182	120.01662	-1080.05237	104.09954	108.47682	-1043.07227	275.91061	27.00724	-1049.06616	606.65442	623.58545	-841.20612	689.1001	470.59515	-889.31567	710.93469	278.91699	-886.32642	761.72937	68.05702	-934.50653	726.96936	29.13216	-988.02673	904.71173	65.61138	-952.56628	477.05573	1657.11987	-1004.91223	NaN	NaN	NaN	NaN	NaN	NaN	NaN	NaN	NaN	NaN	NaN	NaN	NaN	NaN	NaN	NaN	NaN	NaN
147	1.46	588.71771	1604.52649	-1037.52393	560.76666	1602.47058	-907.45538	468.7128	1547.87012	-1061.36267	445.85007	1545.50879	-932.83716	446.15781	1383.0592	-1001.51251	429.87775	1070.75476	-995.73022	573.29968	1315.38318	-989.63318	627.65912	1152.62695	-998.49915	395.60983	1203.57776	-917.95581	529.05402	1353.89758	-1145.91321	574.63867	1174.4364	-1226.35352	630.78467	1068.20923	-1238.70898	734.20392	999.37866	-1216.23694	825.5451	941.27728	-1161.03577	817.06604	921.14185	-1211.53479	889.8335	885.62207	-1186.13123	502.98758	1338.85181	-836.60547	466.90393	1118.08044	-770.73596	463.06866	1003.55804	-761.84949	446.88629	867.24646	-760.76959	454.98383	765.98907	-794.3421	418.96527	769.64417	-753.56787	414.37445	693.70288	-769.06091	582.01227	911.32672	-1125.53796	607.49152	912.52417	-887.69617	427.70346	935.5484	-1053.7085	441.88846	936.9986	-906.77124	464.4924	623.28564	-1161.16711	418.19769	448.40326	-1131.59375	280.01041	299.60745	-1126.58191	160.46567	126.31959	-1080.68933	110.60285	117.60717	-1043.44287	276.47946	26.83986	-1049.13782	627.77417	624.60089	-841.86401	707.72144	471.20807	-889.69495	724.73187	277.36942	-889.06775	769.36841	66.7587	-935.73102	730.40997	31.98416	-989.31628	911.49158	50.56776	-954.59772	NaN	NaN	NaN	NaN	NaN	NaN	NaN	NaN	NaN	NaN	NaN	NaN	NaN	NaN	NaN	NaN	NaN	NaN	NaN	NaN	NaN
